<svg height="26px" version="1.1" viewBox="0 0 120 26" width="120px" xmlns="http://www.w3.org/2000/svg" xmlns:xlink="http://www.w3.org/1999/xlink">
<!-- Generator: Sketch 56.3 (81716) - https://sketch.com -->
<title>Logo / Vanguard / Logomark / Red</title>
<desc>Created with Sketch.</desc>
<g fill="none" fill-rule="evenodd" id="Page-1" stroke="none" stroke-width="1">
<g fill="#96151D" id="Home" transform="translate(-161.000000, -60.000000)">
<g id="Group-2">
<g id="Logo-/-Vanguard-/-Logomark-/-Red" transform="translate(161.000000, 60.000000)">
<path d="M40.2239675,19.0496864 L46.1738862,19.0503284 L46.1703089,18.8911185 C46.1738862,18.8911185 44.9641301,18.8599827 45.0012033,16.7353654 C45.0012033,16.7353654 44.9953496,10.1852914 44.9946992,10.1827235 C45.0012033,5.63111852 40.3342114,5.79674815 40.3342114,5.79674815 C38.3797398,5.83301975 37.0555122,7.00558765 36.7306341,7.32529136 L36.7312846,5.81311852 L30.7342114,6.04711852 L30.7342114,6.21435309 C31.9748618,6.29620494 31.8668943,8.14926667 31.8668943,8.19741481 L31.8668943,17.0884519 C31.4597398,17.0903778 30.7452683,17.0919827 30.7452683,17.0756123 C28.7407154,16.9613407 28.740065,14.9336617 28.7452683,14.8768469 C28.7452683,14.8768469 28.6929106,10.7775136 28.6929106,10.8028716 C28.7166504,7.86198272 26.9436423,6.9237358 26.9677073,6.89901975 C23.6145366,4.84855062 18.8096585,6.25704444 18.8096585,6.25704444 C18.8096585,6.25704444 17.7836423,9.46756296 17.7579512,9.44380988 C22.8581138,7.23862469 23.6925854,9.42166173 23.6655935,9.34398272 C23.7517724,9.56064938 23.7641301,9.75292099 23.7234797,9.92368642 C23.5566504,10.8783037 21.7859187,11.129958 21.7647805,11.129958 C19.6623415,11.5006988 18.5595772,11.8890938 18.5595772,11.8890938 C15.3303089,12.9749951 15.7556748,15.6674395 15.7556748,15.6924765 C16.3062439,19.1501556 21.0366504,19.0522543 21.0366504,19.0522543 L23.0646179,19.0522543 L24.0899837,16.9773901 C21.9875447,17.3966 21.336813,16.2596617 21.336813,16.2596617 C20.4616911,14.8274148 21.7878699,13.9886741 21.7878699,13.9886741 C22.3052683,13.5919333 23.9641301,13.2237605 23.9641301,13.2237605 L23.9641301,15.3226988 C24.1303089,19.1995877 28.3140488,19.061884 28.4444553,19.0458346 L31.8704715,19.0458346 L31.8704715,19.0467975 L37.8860813,19.0503284 L37.8860813,18.8943284 C37.8834797,18.8943284 36.7742114,18.8551679 36.7238049,17.0098099 L36.7283577,11.0185753 C36.6867317,8.7983037 38.5397398,8.77069877 38.5348618,8.7671679 C40.3374634,8.75079753 40.2103089,10.3281309 40.220065,10.6802543 C40.220065,10.6802543 40.2226667,16.7353654 40.2220163,16.7376123 L40.2646179,16.7376123 L40.2239675,16.7433901 L40.2239675,19.0496864" id="Fill-1"></path>
<path d="M13.4666992,0.000128395062 L13.4666992,0.157412346 C15.3532033,0.884449383 14.6491382,2.71472099 14.6491382,2.71472099 L11.1941789,13.6067951 L6.52523577,0.0315851852 L3.25203252e-05,0.0315851852 L3.25203252e-05,0.22385679 C1.12003252,0.477116049 1.66312195,2.39951111 1.66312195,2.39951111 L5.9483252,14.1755852 C7.13206504,17.4897827 9.35092683,18.1452395 9.35092683,18.1452395 L12.0901138,19.1951901 L18.6793821,0.000128395062 L13.4666992,0.000128395062" id="Fill-3"></path>
<path d="M115.978927,16.7375802 L115.975675,0.0340246914 L109.909984,0.268345679 L109.909984,0.435580247 C111.149008,0.517432099 111.042016,2.37081481 111.042016,2.41992593 L111.042016,6.74587654 C106.803317,4.07558025 103.726244,7.53807407 103.746732,7.47355556 C101.764618,9.4302963 101.850797,12.5130617 101.829984,12.4915556 C101.829984,15.7457284 103.746732,17.4049136 103.746732,17.4049136 C106.267057,20.0845185 109.305756,19.0419506 109.305756,19.0419506 C109.305756,19.0419506 110.620228,16.7237778 110.620228,16.7035556 C106.87161,17.3195309 106.87161,12.5130617 106.892748,12.4915556 C106.892748,8.3668642 109.111285,8.60054321 109.132098,8.57903704 C111.042016,8.59990123 111.041041,10.7707407 111.041041,10.6930617 L111.044293,10.8625432 L111.044293,19.0486914 L111.044943,19.0483704 L111.044943,19.0486914 L117.16787,19.0522222 L117.16787,18.8959012 C117.164943,18.8959012 115.947707,19.0130617 115.978927,16.7375802" id="Fill-5"></path>
<path d="M97.7628618,7.52985679 L97.7628618,5.81257284 L91.7651382,6.04721481 L91.7651382,6.21444938 C93.006439,6.29598025 92.9000976,8.14936296 92.9000976,8.19975802 L92.8965203,16.0379556 L92.8971707,16.0379556 L92.8978211,17.0875852 C92.5079024,17.0904741 91.702374,17.093684 91.702374,17.0753877 C89.6971707,16.961437 89.6958699,14.933437 89.700748,14.8772642 C89.700748,14.8772642 89.6496911,10.7772889 89.6496911,10.8023259 C89.6734309,7.86175802 87.8997724,6.92351111 87.9254634,6.89879506 C84.5696911,4.84832593 79.7657886,6.25681975 79.7657886,6.25681975 C79.7657886,6.25681975 78.7394472,9.46765926 78.7140813,9.44390617 C83.8142439,7.23872099 84.6474146,9.42175802 84.6217236,9.34375802 C84.707252,9.56074568 84.7209106,9.75301728 84.6789593,9.92378272 C84.5121301,10.8784 82.7420488,11.1300543 82.7209106,11.1300543 C80.6178211,11.5007951 79.5144065,11.8891901 79.5144065,11.8891901 C76.286439,12.9754123 76.7114797,15.6672148 76.7114797,15.6925728 C77.262374,19.1502519 81.9924553,19.0520296 81.9924553,19.0520296 L84.0197724,19.0520296 L85.0461138,16.9774864 C82.944,17.3963753 82.2922927,16.259758 82.2922927,16.259758 C81.4181463,14.8271901 82.7433496,13.9887704 82.7433496,13.9887704 C83.2613984,13.5920296 84.9209106,13.2235358 84.9209106,13.2235358 L84.9209106,15.3224741 C85.0870894,19.199363 89.2711545,19.0616593 89.4012358,19.0462519 L92.8984715,19.0462519 L92.8984715,19.0484988 L98.9508293,19.0484988 L98.9508293,18.8915358 C98.8955447,18.8982765 97.7332683,18.9849432 97.7589593,16.7332148 L97.7622114,11.4154123 L97.7641626,11.4154123 C97.764813,11.4353136 97.5976585,8.39941235 101.641886,9.06963457 L101.641886,5.81128889 C101.641886,5.81128889 99.0929431,5.04059753 97.7628618,7.52985679" id="Fill-7"></path>
<path d="M53.0969431,13.0086025 C52.9678374,13.0390963 51.2211707,12.8837383 51.410439,10.4708741 C51.4332033,10.4920593 51.3626341,8.31833086 53.1024715,8.31833086 C53.1024715,8.31833086 54.6806829,8.25188642 54.7180813,10.4329975 C54.7180813,10.4702321 54.9314146,13.0086025 53.0969431,13.0086025 M66.7938537,5.79633086 L52.9021463,5.79633086 C51.264748,5.87465185 49.4325528,6.1879358 47.9909268,7.56946667 C47.9909268,7.56946667 45.4793821,9.98778765 47.6335285,13.0525778 C47.6523902,13.0525778 48.6592195,14.4726272 50.3532033,15.0109235 C50.3551545,15.0093185 50.370439,15.0125284 50.3961301,15.0173432 L50.3662114,15.023763 C50.5197073,15.0199111 49.1675122,15.1723802 48.5756423,15.5200099 C48.2436098,15.7302568 48.1392195,15.958479 48.2306016,16.530158 C48.3229593,17.0938123 48.8351545,18.9388494 50.808813,19.0454173 C52.2143415,19.1092938 54.2345041,18.8614914 55.2998699,19.6450222 C55.2998699,19.6450222 56.0660488,20.1951951 56.0660488,21.1180346 C56.0660488,21.8152198 55.984748,23.2442568 53.0364553,23.393516 C52.8995447,23.3909481 50.5915772,23.3758617 50.1414959,21.7619358 C50.1392195,21.7503802 49.9011707,20.3858617 51.2478374,20.197121 C51.2478374,20.197121 49.4767805,19.7849728 47.9756423,20.197121 C45.943122,20.7540346 45.3427967,22.6032444 46.4845854,23.9257136 C46.4683252,23.9087012 48.1411707,25.8673679 52.6540163,25.8339852 C57.2016585,25.9562815 61.7577561,24.6110222 60.9493008,20.1066025 C60.9307642,20.1066025 60.4042602,16.8919111 55.4784065,16.9102074 L53.0468618,16.9102074 C53.0468618,16.9102074 52.010439,16.9843556 51.8000325,16.5019111 C51.7980813,16.4980593 51.3401951,15.7694173 52.7775935,15.7215901 L52.7782439,15.7222321 L53.0429593,15.6930222 C53.0429593,15.6930222 57.2901138,15.177516 58.605561,13.3424296 C58.6244228,13.3228494 60.6175935,11.149763 58.5681626,8.53339259 C58.5652358,8.53339259 58.3876748,8.29329383 58.2507642,8.17902222 L61.9005203,8.17902222 C61.8975935,9.82344198 61.8881626,14.6430716 61.904748,14.6767753 C61.8956423,19.2296642 66.645561,19.0637136 66.645561,19.0637136 C68.6858862,19.025837 70.0374309,17.751516 70.2849106,17.4988988 L70.2842602,19.0479852 L76.3414959,19.0502321 L76.3414959,18.8948741 C75.0429593,18.8374173 75.1499512,16.7827753 75.1535285,16.7365531 L75.1522276,9.71944198 L75.1545041,5.81302222 L69.1580813,6.04734321 L69.1580813,6.21425679 C70.3977561,6.29610864 70.290439,8.14917037 70.290439,8.19763951 L70.290439,12.3046765 L70.2884878,13.8460593 C70.2868618,13.8454173 70.285561,13.8431704 70.2842602,13.8418864 C70.2149919,16.3722321 68.4283252,16.0708247 68.4358049,16.1013185 C66.7515772,16.1170469 66.7938537,14.2803556 66.7938537,14.2803556 L66.7938537,5.79633086" id="Fill-9"></path>
<path d="M117.507285,1.31229383 C117.507285,0.721676543 117.993463,0.242441975 118.590862,0.242441975 C119.18826,0.242441975 119.675415,0.721676543 119.675415,1.31229383 C119.675415,1.90162716 119.18826,2.3815037 118.590862,2.3815037 C117.993463,2.3815037 117.507285,1.90162716 117.507285,1.31229383 M117.334927,1.31229383 C117.334927,1.99567654 117.898504,2.55194815 118.590862,2.55194815 C119.284195,2.55194815 119.848098,1.99567654 119.848098,1.31229383 C119.848098,0.627948148 119.284195,0.0716765432 118.590862,0.0716765432 C117.898504,0.0716765432 117.334927,0.627948148 117.334927,1.31229383" id="Fill-11"></path>
<path d="M118.362827,1.39035802 L118.362827,2.05062963 L118.113496,2.05062963 L118.113496,0.588209877 L118.756384,0.588209877 C119.058269,0.588209877 119.370427,0.665246914 119.370427,0.955098765 C119.370427,1.131 119.239637,1.26677778 119.030609,1.30754321 L119.030609,1.31139506 C119.247935,1.35376543 119.27757,1.44749383 119.30523,1.61119753 C119.33368,1.75724691 119.353041,1.91324691 119.417844,2.05062963 L119.150731,2.05062963 C119.128998,1.96396296 119.098178,1.86798765 119.085929,1.78132099 C119.066172,1.65003704 119.066172,1.52998765 118.983983,1.45744444 C118.912463,1.39035802 118.811703,1.39677778 118.712129,1.39035802 L118.362827,1.39035802 Z M118.357691,1.21574074 L118.769424,1.21574074 C119.046415,1.2064321 119.108056,1.10467901 119.108056,0.989444444 C119.108056,0.874530864 119.046415,0.772777778 118.769424,0.76282716 L118.357691,0.76282716 L118.357691,1.21574074 L118.357691,1.21574074 Z" id="Fill-13"></path>
</g>
</g>
</g>
</g>
</svg>